<?xml version="1.0" encoding="UTF-8" standalone="no"?>
<!-- Created with Inkscape (http://www.inkscape.org/) -->

<svg
   version="1.1"
   id="svg1"
   width="3552"
   height="1216"
   viewBox="0 0 3552 1216"
   sodipodi:docname="ExpressLaneLogoOracle.svg"
   xml:space="preserve"
   inkscape:version="1.4.2 (ebf0e940, 2025-05-08)"
   xmlns:inkscape="http://www.inkscape.org/namespaces/inkscape"
   xmlns:sodipodi="http://sodipodi.sourceforge.net/DTD/sodipodi-0.dtd"
   xmlns="http://www.w3.org/2000/svg"
   xmlns:svg="http://www.w3.org/2000/svg"><sodipodi:namedview
     id="namedview1"
     pagecolor="#ffffff"
     bordercolor="#000000"
     borderopacity="0.25"
     inkscape:showpageshadow="2"
     inkscape:pageopacity="0.0"
     inkscape:pagecheckerboard="0"
     inkscape:deskcolor="#d1d1d1"
     inkscape:zoom="1.3250289"
     inkscape:cx="1096.9572"
     inkscape:cy="408.29297"
     inkscape:window-width="2560"
     inkscape:window-height="1317"
     inkscape:window-x="0"
     inkscape:window-y="30"
     inkscape:window-maximized="1"
     inkscape:current-layer="svg1" /><defs
     id="defs1" /><g
     id="g1"
     style="fill:#ffffff"><path
       style="fill:#ffffff"
       d="m 1361.2693,896.80458 c -0.275,-0.26158 -62.375,-0.77005 -138,-1.12995 -75.625,-0.35989 -147.4,-0.85668 -159.5,-1.10398 -12.1,-0.24731 -45.175,-0.69199 -73.50004,-0.98819 -28.325,-0.2962 -61.40004,-0.74885 -73.50004,-1.00588 -12.1,-0.25703 -39.1,-0.70285 -60,-0.99071 -38.9891,-0.537 -73.7758,-1.17827 -109,-2.00935 -21.16029,-0.49925 -48.08798,-0.93248 -155.5,-2.50176 -36.575,-0.53436 -75.95,-1.26073 -87.5,-1.61416 -11.55,-0.35343 -22.0125,-0.58938 -23.25,-0.52433 -1.2375,0.065 -2.25,-0.3267 -2.25,-0.87054 0,-0.60008 5.40543,-1.01888 13.75,-1.06531 7.5625,-0.0421 14.425,-0.20575 15.25,-0.3637 0.825,-0.15795 24.45,-0.57688 52.5,-0.93096 28.05,-0.35408 58.2,-0.86007 67,-1.12442 8.8,-0.26435 34.9,-0.727 58,-1.0281 23.1,-0.30111 64.725,-0.96353 92.5,-1.47206 27.775,-0.50852 75.925,-1.17722 107,-1.48599 31.075,-0.30877 59.65004,-0.7659 63.50004,-1.01583 3.85,-0.24994 31.75,-0.69311 62.00004,-0.98483 30.25,-0.29171 67.15,-0.74822 82,-1.01446 146.7525,-2.63105 883.9785,-2.62704 1165.5,0.006 25.025,0.23409 102.875,0.72055 173,1.08103 70.125,0.36048 129.75,0.76595 132.5,0.90105 2.75,0.1351 36.725,0.54801 75.5,0.91759 38.775,0.36958 74.1,0.86042 78.5,1.09077 4.4,0.23034 31.625,0.66449 60.5,0.96477 77.8827,0.80993 125.8965,1.50471 140.5,2.03311 7.15,0.25871 33.925,0.7058 59.5,0.99354 53.4416,0.60124 98.3106,1.56474 98.9167,2.1241 0.2291,0.21151 0.2291,0.55759 0,0.76907 -0.507,0.46783 -38.6156,1.42706 -83.9167,2.11224 -18.425,0.27869 -44.075,0.72722 -57,0.99674 -12.925,0.26953 -48.025,0.72314 -78,1.00804 -29.975,0.28489 -64.4,0.73604 -76.5,1.00256 -12.1,0.26651 -46.525,0.71422 -76.5,0.99491 -29.975,0.2807 -65.975,0.72914 -80,0.99655 -27.279,0.52011 -74.7011,1.22256 -134.5,1.99229 -20.35,0.26195 -118.45,0.75678 -218,1.09962 -99.55,0.34284 -192.025,0.81721 -205.5,1.05417 -35.3839,0.62222 -705.404,1.65289 -706,1.08602 z M 714.76922,844.60577 c -0.55,-0.17229 -6.175,-0.85717 -12.5,-1.52195 -23.84534,-2.50622 -51.58489,-12.71359 -75.18876,-27.66731 -33.58571,-21.27751 -57.54992,-48.58775 -72.37069,-82.47552 -12.46338,-28.49757 -15.82751,-48.84181 -14.28117,-86.36406 0.74408,-18.05548 2.82456,-29.72001 8.40919,-47.14751 4.21538,-13.15461 4.4968,-12.20105 -4.56857,-15.48029 -7.65523,-2.76914 -13.3324,-5.00571 -17.5,-6.89427 -2.2,-0.99694 -9.625,-3.9012 -16.5,-6.45392 -18.41102,-6.83609 -28.03272,-12.47787 -37.06055,-21.73085 l -7.56055,-7.7491 -35.68945,-0.069 c -21.90547,-0.0424 -35.68945,-0.43708 -35.68945,-1.02203 0,-0.56822 8.17641,-1.00754 20.25,-1.08803 11.1375,-0.0743 22.275,-0.25264 24.75,-0.39641 2.475,-0.14377 8.89508,-0.30802 14.26685,-0.365 l 9.76684,-0.10359 -2.50457,-4.94253 c -3.41428,-6.73775 -6.23966,-16.7687 -16.0712,-57.05747 -4.63041,-18.975 -10.92523,-43.95 -13.9885,-55.5 -7.35171,-27.71952 -10.37242,-42.99621 -9.37566,-47.41573 0.90421,-4.00915 3.41858,-7.63355 7.29978,-10.52248 2.71222,-2.01881 3.82612,-2.06179 53.43821,-2.06179 h 50.66825 l 4.4556,-2.5 c 2.45057,-1.375 5.82557,-4.4507 7.5,-6.83488 2.50113,-3.56133 3.07389,-5.41517 3.20966,-10.38861 0.0977,-3.58033 0.67291,-6.36747 1.40774,-6.82163 0.68337,-0.42234 13.94678,-0.55846 29.47424,-0.30247 l 28.23174,0.46543 1.86051,-3.80892 1.86051,-3.80892 57.05538,0.19608 c 63.80113,0.21926 66.13027,0.4232 79.44462,6.95605 5.15964,2.53165 9.55451,5.73448 14.08395,10.26392 10.21054,10.21055 12.60153,16.07759 20.81816,51.08395 3.8083,16.225 7.7899,32.99163 8.848,37.25918 l 1.92382,7.75918 -9.47821,-0.28945 -9.47822,-0.28945 -2.36178,-9.96973 c -10.6497,-44.9552 -13.74448,-56.52521 -16.84333,-62.96973 -5.81267,-12.08829 -13.14101,-18.73314 -27.51239,-24.94639 -6.05303,-2.61694 -7.72393,-2.85293 -24.29893,-3.43189 -17.47048,-0.61025 -23.57916,-0.1748 -19.20107,1.36872 10.92951,3.85325 16.60966,7.33811 20.68219,12.68882 4.76662,6.26264 8.64814,14.33037 11.70112,24.32074 1.68075,5.5 5.09459,16.19005 7.5863,23.75566 2.49172,7.56562 4.53039,14.04658 4.53039,14.40215 0,0.64953 -128.75331,-0.0957 -227.38645,-1.31618 l -52.88645,-0.6544 0.49214,2.90638 c 0.27068,1.59852 2.8261,11.90639 5.6787,22.90639 2.85261,11 7.20732,28.55 9.67713,39 8.01881,33.92831 13.54243,49.73246 20.10936,57.53681 l 2.49336,2.96319 h 48.03421 48.03421 l 12.30589,-12.13079 c 6.76823,-6.67193 15.60034,-14.59079 19.62689,-17.59746 15.65905,-11.69279 35.83997,-21.99637 55.62178,-28.39828 6.98457,-2.2604 19.22423,-7.19517 27.19923,-10.96616 18.77941,-8.87989 25.13635,-11.17865 44.5,-16.09185 l 16,-4.05973 25.5,-0.12787 c 23.2629,-0.11664 26.46503,0.0782 36.5,2.22118 14.75526,3.15097 28.01361,7.45857 39.5,12.83344 6.15749,2.8813 10.37961,4.28117 12,3.97868 2.50195,-0.46706 33.24,-11.7406 53,-19.43836 5.775,-2.24973 15,-5.72483 20.50004,-7.72245 5.5,-1.99762 16.525,-6.03017 24.5,-8.96122 7.975,-2.93104 15.625,-5.65114 17,-6.04465 1.375,-0.39351 19.37504,-7.0177 40.00004,-14.72042 20.625,-7.70272 44.25,-16.40163 52.5,-19.33091 17.5948,-6.24728 42.2769,-15.19834 51.5,-18.67665 9.956,-3.75472 36.436,-13.59417 46.5,-17.27851 4.95,-1.81215 11.025,-3.86414 13.5,-4.55998 11.9544,-3.36096 8.2463,-3.73501 -43.5,-4.38804 -23.65,-0.29846 -53.575,-0.76516 -66.5,-1.03712 -24.3217,-0.51177 -62.0998,-1.06291 -142.00008,-2.07164 -38.4027,-0.48483 -106.91343,-2.09545 -111.75,-2.62713 -0.6875,-0.0756 -1.25,-0.4434 -1.25,-0.81738 0,-1.02754 40.01023,-1.91832 115.00004,-2.56034 37.125,-0.31785 74.92504,-0.76089 84.00004,-0.98453 9.075,-0.22364 58.8,-0.64524 110.5,-0.93688 65.6249,-0.3702 97.0186,-0.90377 104,-1.76761 11.6506,-1.44157 47.4706,-1.47369 163.5,-0.14662 43.725,0.50011 86.25,0.90928 94.5,0.90928 h 15 l 0.3075,-4.25 c 0.2581,-3.56707 0.6598,-4.27029 2.5,-4.37629 9.0224,-0.51968 52.7982,0.93973 53.6925,1.79001 0.275,0.26146 0.9814,2.35659 1.5699,4.65583 l 1.0698,4.18045 6.1802,-0.23863 c 4.3838,-0.16928 6.1801,0.12231 6.1801,1.00318 0,0.683 -0.9365,4.39038 -2.0811,8.23863 -4.4671,15.01899 -5.1923,18.2664 -5.795,25.94734 l -0.6239,7.95052 -21,0.23975 c -11.55,0.13187 -48.675,0.50066 -82.5,0.81955 -33.825,0.31889 -64.875,0.8201 -69,1.11381 -23.7523,1.69117 -36.0238,4.0056 -59,11.12753 -21.7282,6.73509 -39.5825,15.34943 -54.6631,26.37383 -7.7023,5.63055 -25.2892,21.20977 -38.2724,33.90313 -5.7395,5.6114 -11.9793,11.38004 -13.8661,12.81919 -1.8868,1.43916 -4.7876,3.88433 -6.4463,5.43372 -4.8184,4.50111 -20.3948,14.56895 -30.0166,19.40127 -17.8215,8.95052 -30.1795,12.93237 -63.4635,20.44852 -85.1522,19.22895 -102.452,23.45994 -98.7877,24.1604 1.6025,0.30634 15.5366,0.60626 30.9647,0.66649 31.3425,0.12235 27.8792,0.5101 91.551,-10.25005 41.2329,-6.96812 75.2715,-11.86688 112.5,-16.19074 34.9941,-4.06436 76.8202,-8.53555 93,-9.94165 9.9,-0.86037 20.025,-1.76902 22.5,-2.01923 4.9621,-0.50165 26.4597,-2.08873 40.5,-2.98996 17.6387,-1.13221 23.11,-1.47689 31.5,-1.98449 13.2,-0.7986 73.6721,-3.38814 91.6112,-3.92298 l 16.1112,-0.48034 1.2874,3.9009 c 0.7081,2.14549 2.3217,4.87258 3.5859,6.0602 4.193,3.93912 1.2703,3.78331 101.4043,5.40604 56.6731,0.91843 79.4131,1.63752 84.9208,2.68541 4.2623,0.81095 6.3976,1.95431 9.9916,5.35005 2.514,2.37528 4.3496,4.51601 4.0792,4.75719 -0.2704,0.24117 -32.0499,0.71824 -70.6212,1.06014 -38.5713,0.34191 -70.7463,0.8173 -71.5,1.05643 -0.7537,0.23913 -8.5704,0.69982 -17.3704,1.02376 -8.8,0.32394 -20.275,0.80232 -25.5,1.06308 -5.225,0.26075 -14.9,0.7123 -21.5,1.00343 -22.1194,0.97571 -41.9246,2.29216 -76,5.05172 -25.5621,2.07012 -29.3762,2.33453 -44.4878,3.08404 -7.4183,0.36794 -14.6183,1.01276 -16,1.43295 -1.3817,0.42018 63.8628,0.80884 144.9878,0.86368 148.7905,0.10059 244.7229,0.74138 250.8026,1.67524 1.8164,0.27901 3.5255,1.0884 3.798,1.79863 0.2726,0.71024 -0.6093,6.19791 -1.9597,12.19483 -1.3503,5.99692 -2.7493,13.15349 -3.1087,15.90349 -0.3594,2.75 -1.7875,7.77894 -3.1736,11.17542 l -2.5202,6.17541 -37.6692,-0.3659 c -40.0695,-0.38922 -47.0805,-0.0158 -76.1692,4.05707 -42.299,5.92249 -78.6402,15.35267 -134,34.77164 -17.7072,6.21129 -46.7098,17.15131 -58.5,22.06666 -10.9145,4.55028 -16.6646,6.75964 -33,12.67966 -7.7,2.79051 -19.175,7.01113 -25.5,9.37916 -43.5132,16.291 -96.3945,30.64285 -129,35.01025 -28.1545,3.77121 -41.7771,4.70367 -76.6331,5.2455 -41.8803,0.65102 -64.6183,-0.74836 -110.3669,-6.79236 -22.1934,-2.93205 -40.0603,-7.95499 -42.5341,-11.95768 -0.643,-1.04039 10.1863,-0.77682 23.3086,0.56729 19.9976,2.04835 31.2415,2.48438 63.7255,2.47122 32.4666,-0.0132 46.08,-0.52071 66,-2.46072 46.4587,-4.5246 75.4572,-10.44899 110,-22.47298 18.0186,-6.2721 46.239,-17.4931 58,-23.06202 6.05,-2.86471 14.375,-6.68213 18.5,-8.48316 11.8228,-5.16201 29.4783,-13.23038 42,-19.19357 6.325,-3.01215 15.775,-7.26181 21,-9.4437 5.225,-2.1819 10.4,-4.35871 11.5,-4.83738 1.1,-0.47867 6.05,-2.63696 11,-4.79621 19.5642,-8.53414 45.5414,-18.21336 74,-27.57267 25.8028,-8.48589 35.8476,-11.38371 54.0989,-15.60686 6.9271,-1.60284 12.8511,-3.17071 13.1645,-3.48416 0.3135,-0.31345 -38.3176,-0.57344 -85.8467,-0.57776 -47.5292,-0.004 -120.6167,-0.2834 -162.4167,-0.62019 -86.101,-0.69373 -84.4317,-0.78441 -131.9961,7.16964 -28.1873,4.71367 -46.8097,8.30401 -59.5039,11.4722 -4.125,1.0295 -14.475,3.26835 -23,4.97522 -16.12,3.22752 -61.5389,13.66683 -85.109,19.56187 -18.3715,4.59484 -68.3475,19.26822 -84.391,24.77793 -7.15,2.45547 -16.15,5.45134 -20,6.65749 -12.79124,4.0073 -66.09974,25.0377 -80.19958,31.639 -3.9644,1.85608 -7.6091,3.37469 -8.0993,3.37469 -0.4902,0 -1.636,0.82293 -2.5462,1.82874 -1.2699,1.40322 -1.655,3.8296 -1.655,10.42764 0,25.17433 -9.616,58.4604 -24.27043,84.01304 -16.23035,28.3005 -43.59534,54.68667 -73.72957,71.09233 -8.95446,4.87498 -28.09739,12.98991 -36.51686,15.47994 -16.84278,4.98121 -33.10782,7.18262 -52.3055,7.07936 -8.0727,-0.0434 -15.12764,-0.21991 -15.67764,-0.39221 z m 45.59957,-24.50081 c 24.38934,-4.58774 44.52522,-11.99936 63.40043,-23.33642 23.45665,-14.08882 42.66022,-32.15981 57.30966,-53.92966 12.36264,-18.37161 22.20044,-42.98798 26.62514,-66.62242 3.1987,-17.08558 1.5654,-48.99953 -3.4359,-67.13953 -6.1021,-22.13212 -13.72414,-37.66089 -30.76346,-62.67551 l -2.26456,-3.32449 -16.23544,-0.0839 c -8.92949,-0.0461 -26.36044,-0.26183 -38.73544,-0.47932 -12.375,-0.21749 -67.71306,-0.46943 -122.97347,-0.55986 l -100.47346,-0.16443 -7.73798,10.89375 c -12.15934,17.11824 -24.20432,43.7698 -27.872,61.6715 -3.26779,15.94989 -4.49678,35.08071 -3.18005,49.50172 2.23975,24.5302 6.4919,39.98176 16.70979,60.72052 12.73548,25.8486 35.09774,50.87331 60.42123,67.61497 38.44156,25.41419 86.8702,35.87652 129.20551,27.91306 z m -43.09957,-17.68153 c -40.75638,-6.21352 -59.22923,-13.60145 -84.3681,-33.74173 -12.02456,-9.63359 -21.08814,-21.12447 -29.1721,-36.98458 -6.8083,-13.35737 -7.56933,-16.89124 -3.75445,-17.43389 1.83523,-0.26105 2.79093,0.8491 5.69446,6.61475 13.2818,26.37413 44.76843,51.85039 76.60019,61.97827 18.50143,5.88657 29.74225,7.65591 48.5,7.63402 20.03623,-0.0234 30.30382,-1.63063 47.97123,-7.50926 27.89684,-9.28237 54.84315,-29.47393 69.26771,-51.90408 8.84878,-13.75982 10.62984,-15.36318 11.816,-10.63711 0.72147,2.87455 -9.39203,20.35829 -18.01132,31.13711 -21.23856,26.55981 -56.61972,45.64575 -93.45262,50.41189 -7.92799,1.02587 -25.59303,1.2728 -31.091,0.43461 z m 3.5,-103.94801 c -14.58093,-3.5551 -30.02506,-15.35107 -34.11286,-26.05485 -1.69622,-4.44147 -1.69211,-4.64747 0.11915,-5.9719 1.03178,-0.75446 2.21591,-1.37174 2.63139,-1.37174 0.41547,0 2.42278,2.512 4.46068,5.58223 16.02474,24.14229 55.23757,25.45203 72.79336,2.43135 3.03618,-3.9813 4.41895,-5.01358 6.71584,-5.01358 2.51028,0 2.89244,0.37487 2.89244,2.83721 0,4.20944 -7.09834,13.41833 -14.30944,18.56406 -9.87618,7.0475 -15.3657,8.83615 -28.19056,9.18534 -6.05,0.16473 -11.9,0.0801 -13,-0.18812 z m 207.5705,-121.89688 c 22.52934,-6.60713 63.07464,-16.9239 88.42958,-22.50091 20.6652,-4.54548 43.9314,-10.11916 44.4784,-10.65529 0.2631,-0.25789 -14.8119,-0.31329 -33.5,-0.12311 l -33.97844,0.34577 -28,7.2481 c -36.04174,9.32978 -63.12154,17.39071 -67.28034,20.02757 -1.7877,1.13346 3.5947,12.00781 5.9863,12.09445 0.9383,0.034 11.6774,-2.86247 23.8645,-6.43658 z m -365.04477,-9.51206 c 1.95766,-3.56925 6.32952,-10.60026 9.71524,-15.62447 3.38572,-5.02421 5.87907,-9.41171 5.54078,-9.75 -1.02237,-1.02237 -87.28175,-0.71369 -87.28175,0.31234 0,2.52631 9.93394,7.60295 45,22.9968 11.275,4.94968 21.16743,8.89939 21.98317,8.77714 0.81574,-0.12225 3.08489,-3.14256 5.04256,-6.71181 z m 153.97427,-30.48192 c 7.425,-0.25597 42.89139,-0.56462 78.81419,-0.68587 35.9228,-0.12126 65.48753,-0.50093 65.69938,-0.84372 0.60037,-0.97142 -10.32227,-11.9104 -17.68698,-17.71343 -19.03723,-15.0004 -50.49541,-29.95823 -74.04544,-35.20733 -17.48492,-3.89724 -46.81335,-5.35415 -62.51351,-3.1054 -17.28497,2.47574 -43.29426,10.46727 -57.50703,17.66943 -8.21994,4.16536 -19.93967,11.66417 -28.98093,18.5433 -9.08103,6.90939 -23.77968,20.5424 -23.77968,22.05568 0,0.90979 88.11746,0.38648 120,-0.71266 z M 823.49319,487.1432 c 4.00182,-1.61356 12.45103,-5.25054 18.77603,-8.08218 6.325,-2.83165 12.7375,-5.60549 14.25,-6.16409 1.5125,-0.55861 2.74436,-1.30913 2.73747,-1.66783 -0.022,-1.14682 -26.97606,-10.23298 -36.90568,-12.44083 -8.33566,-1.85344 -12.83308,-2.13578 -34.58179,-2.17093 -28.84981,-0.0466 -36.43831,0.98567 -56.17374,7.6416 -16.91399,5.70438 -18.53505,6.92546 -7.82626,5.89522 8.23572,-0.79232 25.73773,0.51555 39.28237,2.93545 13.38407,2.39121 26.19158,6.44928 39.21763,12.42614 5.225,2.39744 10.50079,4.40447 11.72397,4.46008 1.22318,0.0556 5.49818,-1.21908 9.5,-2.83263 z M 2572.2693,843.06394 c -18.326,-2.47398 -29.3694,-5.21747 -43,-10.68246 -16.2836,-6.52865 -24.9712,-11.0382 -36.9873,-19.19932 -32.1049,-21.80518 -55.3349,-50.15825 -68.9083,-84.10523 -6.7553,-16.89488 -9.795,-27.89833 -11.6997,-42.35235 -0.8805,-6.68121 -1.8021,-13.61015 -2.0481,-15.39765 l -0.4472,-3.25 -16.2047,-0.007 c -8.9126,-0.004 -53.2172,-0.30188 -98.4547,-0.66192 -80.5517,-0.64112 -82.2497,-0.61515 -82.2363,1.25729 0.01,1.05156 0.2849,2.92442 0.6166,4.16192 0.5816,2.17022 1.0164,2.25 12.2638,2.25 8.9355,0 12.1803,0.36383 13.8834,1.5567 2.7184,1.90405 2.8745,5.54329 0.3363,7.84034 -1.7406,1.57515 -9.1176,1.75021 -95.5,2.26628 -65.6387,0.39214 -93.6138,0.24244 -93.6138,-0.50094 0,-2.26183 12.4047,-7.012 21,-8.04162 6.8726,-0.82326 78.7042,-2.0691 121.75,-2.11162 l 9.25,-0.009 v -3.37756 c 0,-1.85765 -0.5625,-3.82808 -1.25,-4.37873 -0.8007,-0.64132 -34.1383,-1.22689 -92.75,-1.62914 -50.325,-0.34537 -103.425,-0.84666 -118,-1.11396 -14.575,-0.26731 -70.6,-0.75972 -124.5,-1.09425 -53.9,-0.33453 -99.35,-0.76434 -101,-0.95513 -1.65,-0.19079 -15.375,-0.46873 -30.5,-0.61763 -15.125,-0.14891 -30.2,-0.54674 -33.5,-0.88406 l -6,-0.61332 5.5,-0.25404 c 3.025,-0.13972 7.075,-0.37567 9,-0.52433 7.9737,-0.61577 104.9671,-1.58775 216.5,-2.16955 65.45,-0.34142 119.273,-0.78018 119.6068,-0.97502 0.3337,-0.19484 24.4087,-0.47376 53.5,-0.61981 29.0912,-0.14606 63.8722,-0.49684 77.291,-0.77951 l 24.3978,-0.51396 -2.654,-3.15175 c -1.8544,-2.2021 -4.0834,-3.46647 -7.3978,-4.19625 -6.1852,-1.36188 -58.6625,-1.99283 -223.2438,-2.68415 -73.975,-0.31072 -135.9625,-0.7885 -137.75,-1.06171 -3.0466,-0.46567 -3.25,-0.7489 -3.25,-4.52491 v -4.02815 l 23.25,0.56526 c 22.15,0.53851 56.7352,0.82745 251.25,2.09911 83.9848,0.54906 91.4864,0.74495 98.6587,2.57627 4.0543,1.03521 9.8413,6.83886 9.8413,9.86965 0,5.02703 -4.3456,4.84206 100.705,4.28648 70.367,-0.37215 98.0011,-0.83029 98.5297,-1.63353 0.4041,-0.61398 0.7416,-3.15939 0.75,-5.65648 0.044,-13.19965 6.0825,-42.78794 11.4896,-56.30367 1.5059,-3.76411 2.3528,-7.1978 1.8819,-7.63041 -0.4709,-0.43262 -5.3562,-1.31508 -10.8562,-1.96102 -16.2837,-1.91244 -19.129,-2.16355 -52,-4.5894 -4.4,-0.32472 -9.8,-0.77957 -12,-1.01079 -2.2,-0.23122 -10.075,-0.89299 -17.5,-1.4706 -7.425,-0.57762 -15.975,-1.46307 -19,-1.96768 -3.025,-0.50461 -8.65,-1.22258 -12.5,-1.59548 -9.6743,-0.93705 -10.5032,-1.50753 -10.4847,-7.21597 0.01,-2.59315 0.3721,-5.27663 0.8081,-5.96329 0.436,-0.68666 3.3722,-1.72532 6.5249,-2.30813 4.6178,-0.85363 10.9251,-0.56633 32.442,1.47775 14.6903,1.39557 39.7597,3.66256 55.7097,5.03777 15.95,1.37521 33.472,3.04352 38.9378,3.70736 7.4882,0.90947 10.0326,0.9226 10.3224,0.0533 0.2115,-0.63455 1.5028,-2.80161 2.8696,-4.81571 1.3668,-2.0141 2.2672,-4.22995 2.0008,-4.92412 -0.2664,-0.69417 -6.0297,-3.09062 -12.8075,-5.32545 -6.7777,-2.23482 -17.5641,-5.89657 -23.9698,-8.13721 -21.5928,-7.55295 -3.4718,-7.01709 -237.2946,-7.01709 -115.6459,0 -213.0551,-0.29159 -216.4648,-0.64797 l -6.1994,-0.64797 3.3028,-3.46397 c 1.8165,-1.90519 6.6777,-5.84933 10.8027,-8.76478 4.125,-2.91544 8.625,-6.51281 10,-7.99415 1.375,-1.48135 3.4494,-3.06047 4.6097,-3.50917 1.5028,-0.58112 2.3065,-2.0466 2.7939,-5.09428 1.0944,-6.84434 1.1774,-6.87771 17.0964,-6.87771 15.5249,0 15.9812,0.1558 17.1191,5.84531 l 0.6309,3.15469 40.125,0.12012 c 22.0688,0.0661 43.5,0.24892 47.625,0.40635 4.125,0.15743 69.825,0.5852 146,0.95061 76.175,0.36541 141.9031,1.05934 146.0624,1.54207 4.1593,0.48273 10.6843,2.06252 14.5,3.51064 10.8467,4.11652 10.3198,4.16476 17.467,-1.59935 19.2524,-15.52671 46.2967,-29.44567 70.6323,-36.3525 18.0636,-5.12674 26.213,-5.9226 64.8383,-6.33193 60.0126,-0.63598 60.5189,-0.62107 76,2.23847 41.1998,7.6101 73.1721,23.75784 101.8233,51.42629 24.1193,23.29208 44.9085,60.88703 50.7396,91.75717 l 1.165,6.16795 62.5828,0.0156 c 83.8719,0.0209 98.181,0.65052 107.087,4.71167 7.6466,3.48693 19.7972,12.54212 35.5567,26.49862 l 5.1512,4.56181 16.9472,0.15021 c 9.321,0.0826 18.7472,0.44676 20.9472,0.8092 8.8471,1.45751 15.836,6.48951 54.5,39.24014 48.3264,40.93522 57.3168,49.13915 59.9188,54.67683 2.3116,4.91959 3.8286,31.0108 2.1627,37.19729 -1.8576,6.89856 -6.6537,13.22593 -11.7259,15.46959 -4.9415,2.1859 -2.6812,2.1714 -51.8556,0.33249 -6.6,-0.24682 -22.35,-0.69613 -35,-0.99847 -12.65,-0.30234 -29.075,-0.74923 -36.5,-0.99309 -7.425,-0.24386 -22.725,-0.69079 -34,-0.99319 -11.275,-0.3024 -25.9,-0.75978 -32.5,-1.01639 -6.6,-0.25662 -23.454,-0.76453 -37.4533,-1.1287 -13.9994,-0.36416 -26.3744,-0.76385 -27.5,-0.8882 -1.1257,-0.12434 -4.8703,-0.28351 -8.3215,-0.35371 -5.5329,-0.11253 -6.3738,-0.39362 -7.1126,-2.37762 -1.2357,-3.31784 -2.0144,-20.05029 -2.7344,-58.75 -0.5362,-28.81882 -0.8927,-34.78818 -2.165,-36.25 -0.8378,-0.9625 -2.1362,-1.75 -2.8855,-1.75 -0.7493,0 -16.4611,-7.65 -34.9152,-17 -18.454,-9.35 -34.1659,-17 -34.9153,-17 -1.6677,0 -2.1652,1.65013 -3.0143,10 -3.1042,30.5236 -13.6707,59.85023 -30.9902,86.01106 -23.6008,35.64862 -55.9007,59.79675 -99.7451,74.57179 -24.2282,8.16459 -53.8998,10.43357 -83.7476,6.40416 z m 58,-22.89779 c 22.556,-3.96648 41.7164,-11.10596 61.5,-22.91599 16.4665,-9.82985 27.9436,-18.73293 38.3665,-29.762 20.573,-21.76941 31.4151,-39.98609 40.4193,-67.91123 7.0125,-21.74868 9.9363,-45.18839 7.8993,-63.32935 -2.8419,-25.31025 -11.6262,-51.92487 -23.9853,-72.67065 -11.1132,-18.65457 -32.1883,-40.96626 -50.1998,-53.14536 -45.8504,-31.00334 -100.5403,-40.86141 -149.6366,-26.97259 -43.1548,12.20804 -78.6749,36.37367 -100.2226,68.18524 -9.0048,13.2941 -21.3921,38.27908 -24.5744,49.5663 -3.9828,14.12672 -6.808,31.57213 -6.9419,42.86641 l -0.1245,10.5 78,0.56802 c 76.4711,0.55688 84.135,0.87709 95.75,4.00061 2.2359,0.60129 3.75,1.61913 3.75,2.52094 0,3.16987 -5.3825,4.29343 -33.75,7.04509 -2.8875,0.28009 -5.25,0.85554 -5.25,1.27879 0,1.67596 12.7676,12.83569 17,14.85915 8.0443,3.84588 16.744,5.53637 25.1679,4.89054 14.1584,-1.08548 23.6734,-5.79411 31.6761,-15.67539 5.0889,-6.28347 6.3603,-7.23033 8.5701,-6.38236 4.1946,1.60964 -0.3892,11.74133 -8.5078,18.8049 -2.4235,2.10852 -8.1596,5.65443 -12.7469,7.87981 -7.6979,3.7344 -9.1242,4.081 -18.5112,4.49849 -5.8645,0.26082 -12.5875,-0.0494 -15.8789,-0.73269 -13.2059,-2.74153 -26.6448,-12.62785 -31.4775,-23.15637 l -2.708,-5.89953 -51.0419,-0.12963 c -28.073,-0.0713 -57.2623,-0.24745 -64.8649,-0.39147 -10.5671,-0.20016 -13.9398,0.0425 -14.3188,1.03001 -0.7265,1.89332 5.3934,29.67794 8.3519,37.91764 7.5757,21.09935 23.5407,45.67642 40.4444,62.26166 31.1793,30.59175 65.0309,46.25414 113.8455,52.6737 7.5324,0.99058 32.8916,-0.31927 44,-2.27269 z m -44.5,-17.68473 c -22.0592,-3.24434 -38.1262,-7.53236 -51.9268,-13.85839 -24.7808,-11.35923 -44.8351,-29.04495 -57.7289,-50.9106 -8.2638,-14.01391 -11.4789,-21.40587 -10.1955,-23.44053 1.952,-3.09454 3.655,-1.77224 8.4396,6.55289 23.8834,41.55692 70.6943,68.46135 121.4116,69.78102 31.3404,0.81548 59.5697,-7.15129 84.5,-23.84728 17.3297,-11.60578 29.5145,-23.71522 39.6771,-39.4316 5.0879,-7.86832 7.7476,-9.91266 8.9204,-6.85641 0.2942,0.76648 -1.1188,4.70398 -3.1399,8.75 -15.3656,30.76043 -43.0102,54.23611 -77.0302,65.41389 -17.374,5.70849 -27.0931,7.43336 -44.4274,7.88467 -8.525,0.22196 -16.85,0.20501 -18.5,-0.0377 z m 278.5,-134.79371 c 0,-3.81512 0.5581,-6.07875 1.9109,-7.75 l 1.9108,-2.36078 51.2384,-0.5 51.2384,-0.5 -4.0247,-3.63482 c -5.1327,-4.63566 -11.6721,-8.46371 -18.4414,-10.79532 -4.9079,-1.6905 -11.2221,-1.89253 -79.3148,-2.53789 -40.6903,-0.38564 -74.2967,-0.89544 -74.6809,-1.13288 -0.3842,-0.23744 -0.9831,0.0288 -1.331,0.59166 -0.3478,0.56286 0.1836,1.30267 1.1809,1.64402 4.3287,1.48154 22.7058,10.09976 44.3785,20.812 12.8557,6.35428 23.9503,11.55323 24.6545,11.55323 0.8821,0 1.2804,-1.67627 1.2804,-5.38922 z M 2464.1609,524.63065 c 13.2636,-12.93826 27.9585,-23.33141 46.4216,-32.83236 11.3044,-5.81716 23.8093,-11.46303 27.3668,-12.35588 4.1248,-1.03527 2.4637,-2.36598 -2.93,-2.34716 -21.2764,0.0742 -56.3271,9.69141 -78.741,21.60488 -14.0117,7.44744 -32.0089,19.78931 -32.009,21.95055 0,0.59057 3.9375,2.30863 8.75,3.81792 4.8125,1.50928 11,3.58441 13.75,4.61139 8.4833,3.16804 9.9735,2.7868 17.3916,-4.44934 z m -246.3916,298.33851 c -85.055,-0.70814 -173.2233,-1.69967 -213,-2.39539 -54.6695,-0.95621 -105.0585,-1.49201 -187.5,-1.99374 -45.925,-0.2795 -107.575,-0.73406 -137,-1.01014 -29.425,-0.27608 -87.6811,-0.76879 -129.4579,-1.09492 -41.7769,-0.32613 -76.6519,-0.72251 -77.5,-0.88085 -0.8482,-0.15833 -31.4671,-0.59393 -68.0421,-0.96798 -36.575,-0.37406 -69.875,-0.84736 -74,-1.05178 -4.125,-0.20442 -41.7,-0.6271 -83.5,-0.93928 -41.8,-0.31218 -91.525,-0.79406 -110.5,-1.07086 -18.975,-0.27679 -64.2,-0.72331 -100.5,-0.99225 -79.08954,-0.58598 -140.71968,-1.52232 -141.75008,-2.15359 -0.4125,-0.25272 -0.75,-2.8776 -0.75,-5.83308 0,-4.49534 0.3269,-5.47734 2,-6.00837 1.1,-0.34913 2.7875,-0.41101 3.75,-0.13751 0.9625,0.2735 32.125,0.75893 69.25004,1.07875 37.12504,0.31981 81.45004,0.79485 98.50004,1.05564 17.05,0.26079 58.45,0.7151 92,1.00958 33.55,0.29448 66.4,0.74237 73,0.9953 6.6,0.25293 51.6,0.70238 100,0.99876 48.4,0.29639 96.325,0.74618 106.5,0.99953 10.175,0.25335 50.675,0.69798 90,0.98807 131.5221,0.97019 195.1744,1.50677 238,2.00631 23.375,0.27266 80.075,0.73243 126,1.02172 45.925,0.28929 86.65,0.73114 90.5,0.98189 3.85,0.25075 38.95,0.69465 78,0.98644 172.1482,1.28634 253.3083,2.30078 254.761,3.18433 0.4186,0.25456 -1.6064,3.14129 -4.5,6.41496 l -5.261,5.95213 -8,-0.26795 c -4.4,-0.14737 -40.85,-0.54145 -81,-0.87572 z m -912.5,-32.88169 c -76.6713,-2.82169 -135.8037,-6.11285 -179.5,-9.99051 -6.05,-0.53689 -15.725,-1.24138 -21.5,-1.56554 -15.1514,-0.85048 -41.1678,-3.28899 -41.7964,-3.91757 -0.9693,-0.96928 11.1148,-0.56619 41.9352,1.39882 16.6986,1.06466 46.7862,2.45547 66.8612,3.09069 20.075,0.63522 47.3,1.52044 60.5,1.96714 25.2677,0.8551 238.1274,0.56256 245,-0.33671 2.2,-0.28786 11.8322,-0.81768 21.4049,-1.17737 9.5727,-0.3597 18.1227,-0.7841 19,-0.94313 0.8773,-0.15902 8.1201,-0.58938 16.0951,-0.95634 7.975,-0.36697 16.75,-0.86284 19.5,-1.10195 10.6551,-0.92644 28.1632,-2.59527 31.5,-3.0025 1.925,-0.23494 7.55,-0.90053 12.5,-1.4791 20.0321,-2.34142 53.0412,-7.58543 76.5,-12.15321 14.3985,-2.80361 55.593,-13.08062 72,-17.96223 7.425,-2.20918 17.2686,-5.12545 21.8747,-6.48061 13.0243,-3.8319 34.3478,-10.99965 39.2193,-13.18329 2.4233,-1.08625 9.581,-3.92398 15.906,-6.30607 l 11.5,-4.33107 17,-0.04 17,-0.04 0.2609,4 c 0.4445,6.81379 0.1681,6.93348 -17.4731,7.56668 l -15.7878,0.56668 -19,6.75514 c -60.2548,21.42265 -80.3932,27.04196 -140.5,39.20444 -11.5383,2.33476 -44.472,7.65976 -55,8.89288 -2.475,0.28989 -7.65,0.97465 -11.5,1.52169 -8.6464,1.22856 -42.9965,4.6833 -54.5,5.48131 -4.675,0.3243 -9.85,0.77945 -11.5,1.01143 -2.9818,0.41921 -7.0772,0.66626 -42.5,2.56376 -24.4628,1.31039 -166.3933,1.99933 -195,0.94653 z m 700.9167,-18.37302 c -0.2292,-0.19936 -16.8417,-0.65635 -36.9167,-1.01553 -86.1909,-1.54213 -95.6126,-1.75373 -97.75,-2.19528 -1.2375,-0.25565 -2.25,-1.19879 -2.25,-2.09586 0,-1.49871 5.213,-1.57185 64.25,-0.90147 35.3375,0.40127 66.725,0.88111 69.75,1.0663 3.025,0.1852 17.425,0.61037 32,0.94484 27.1429,0.62287 49.2268,1.55968 49.8501,2.11466 0.1926,0.17147 0.054,0.7917 -0.309,1.37829 -0.4485,0.7257 -13.0501,1.06653 -39.4335,1.06653 -21.3258,0 -38.9618,-0.16311 -39.1909,-0.36248 z M 1136.7604,756.3172 c -5.5048,-3.70715 -13.8298,-9.4826 -18.5,-12.83433 -11.2047,-8.04159 -18.7722,-12.33503 -28.4911,-16.16441 -17.7108,-6.97832 -12.3937,-6.58505 -94.00004,-6.95259 -40.7,-0.18331 -74.52034,-0.518 -75.15624,-0.74375 -0.843,-0.29925 -0.7449,-1.58029 0.3618,-4.72783 0.835,-2.37455 1.8064,-6.56736 2.1587,-9.31736 l 0.6406,-5 68.49764,0.26199 c 74.82144,0.28618 73.87494,0.21787 86.85474,6.26936 21.1046,9.8395 56.4217,36.1964 64.9626,48.48112 6.7259,9.67407 6.0549,9.7407 -7.3287,0.7278 z m 737.8042,-0.24518 c -2.6301,-1.07025 -6.4672,-8.09895 -5.3808,-9.85668 0.5983,-0.96814 21.0257,-1.22059 94.2095,-1.1643 68.2634,0.0525 94.3794,-0.23994 96.9108,-1.08522 4.1131,-1.37344 9.3982,-6.10586 10.9188,-9.77689 0.5981,-1.44399 1.4158,-6.89741 1.8169,-12.11872 l 0.7295,-9.49328 9,-0.0802 c 4.95,-0.0441 11.25,0.18086 14,0.5 l 5,0.58024 -0.2793,8 c -0.6824,19.545 -3.0382,26.35601 -11.0565,31.9663 l -4.3358,3.0337 -104.6642,0.1961 c -59.9811,0.11239 -105.6054,-0.18689 -106.8689,-0.70101 z m -6.2482,-17.90713 c -2.3717,-4.43142 0.4802,-5.92092 10.545,-5.50766 3.2493,0.13342 37.0374,0.31592 75.0846,0.40555 48.223,0.11361 69.7924,-0.16654 71.2094,-0.92487 3.9159,-2.09573 7.1559,-7.6014 7.7679,-13.19989 0.3223,-2.9486 1.137,-5.81109 1.8103,-6.36109 0.723,-0.59056 6.6107,-0.87488 14.38,-0.69441 l 13.1557,0.3056 -0.022,7.6944 c -0.028,9.97794 -2.219,15.09902 -7.6011,17.77027 -3.7276,1.85005 -7.3698,1.93436 -94.5834,2.18965 -88.9385,0.26034 -90.7268,0.22764 -91.7464,-1.67755 z m -177.7781,-76.78095 c 0.973,-0.25354 2.323,-0.23687 3,0.0371 0.6771,0.27393 -0.119,0.48137 -1.769,0.46099 -1.65,-0.0204 -2.2039,-0.2445 -1.231,-0.49804 z m 157.4594,-75.07822 -19.7717,-0.27121 0.6591,-8.22879 c 0.3624,-4.52584 0.7097,-8.22879 0.7716,-8.22879 29.4619,0 94.473,1.23325 95.3626,1.80902 0.8173,0.52897 1.25,3.40992 1.25,8.32285 v 7.51383 l -29.25,-0.32285 c -16.0875,-0.17757 -38.1472,-0.4449 -49.0216,-0.59406 z M 389.26922,540.01791 c 0,-0.58246 0.45,-0.7809 1,-0.44098 0.55,0.33992 1,0.81648 1,1.05902 0,0.24254 -0.45,0.44098 -1,0.44098 -0.55,0 -1,-0.47656 -1,-1.05902 z M 1858.7693,526.55269 c -0.55,-0.18256 -18.2175,-0.51558 -39.2612,-0.74005 l -38.2612,-0.40811 -2.4888,-2.33812 c -1.3688,-1.28596 -2.4888,-2.9938 -2.4888,-3.79521 0,-1.24162 2.4032,-1.36605 16.25,-0.84143 8.9375,0.33862 33.2384,0.90838 54.0019,1.26614 l 37.752,0.65046 -0.4808,-2.88472 c -0.2645,-1.5866 -0.929,-6.03472 -1.4768,-9.88472 -0.5478,-3.85 -1.691,-9.3331 -2.5405,-12.18466 -1.521,-5.10589 -1.6308,-5.20975 -7.2229,-6.83542 -8.1659,-2.37389 -16.6042,-6.88463 -19.6494,-10.50366 -2.8061,-3.33481 -3.4391,-5.49407 -1.3835,-4.71882 2.5804,0.97316 19.4415,5.56891 24.25,6.60973 8.9051,1.92751 20.4324,3.13283 29.9616,3.13283 12.0266,0 13.2418,0.86927 14.6783,10.5 1.4164,9.49561 4.915,25.84118 5.7123,26.68787 0.3563,0.37833 4.0228,0.99011 8.1478,1.35951 8.0714,0.72281 10.1744,1.67822 8.15,3.70262 -0.9538,0.95384 -10.893,1.28645 -41.95,1.40385 -22.385,0.0846 -41.15,0.004 -41.7,-0.17809 z m 199.0425,-33.07047 c -8.2773,-8.96602 -12.0824,-12.39562 -25.6794,-23.1454 -2.9497,-2.33206 -10.7631,-8.55437 -17.3631,-13.82735 -14.2468,-11.38228 -21.3734,-15.52341 -31.5638,-18.34111 -11.3148,-3.12861 -13.0512,-3.025 -57.4362,3.42743 -18.208,2.64697 -30.5278,4.58847 -102,16.07433 -12.1,1.94451 -29.425,4.83542 -38.5,6.42424 -9.075,1.58882 -23.5936,4.04833 -32.2636,5.46559 -14.9348,2.44135 -20.7364,3.83238 -20.7364,4.97191 0,0.27743 1.6875,1.36739 3.75,2.42213 4.323,2.21075 13.25,9.81593 13.25,11.2881 0,0.84185 -107.93,0.28725 -136.5,-0.7014 -3.85,-0.13323 -14.7625,-0.29208 -24.25,-0.353 -11.4651,-0.0736 -17.25,-0.46789 -17.25,-1.17568 0,-1.4246 8.6071,-9.72166 13.8156,-13.31789 7.8044,-5.38861 19.932,-8.13944 62.1844,-14.10485 19.0675,-2.69205 45.9968,-7.10457 79.9739,-13.10414 22.5352,-3.97919 29.9636,-4.35071 36.9268,-1.84681 l 4.9484,1.77945 5.8255,-2.59492 c 3.204,-1.4272 7.5767,-2.91593 9.7171,-3.30829 3.3039,-0.60563 4.139,-0.38552 5.529,1.45723 1.6005,2.12185 1.7939,2.13821 8.6083,0.72792 3.834,-0.79349 12.0335,-2.21184 18.221,-3.1519 6.1875,-0.94005 11.25,-2.04932 11.25,-2.46503 0,-1.11573 -5.3612,-1.99248 -12.875,-2.10553 -3.6437,-0.0548 -7.7319,-0.40835 -9.0849,-0.78561 -2.0034,-0.55866 -1.1185,-1.00969 4.7694,-2.43081 16.9931,-4.10149 33.8946,-4.49389 46.8389,-1.08747 4.6901,1.23425 6.9433,1.32506 11.3516,0.4575 28.3722,-5.58366 92.0383,-16.44685 103.0474,-17.58271 16.2692,-1.67856 36.4102,7.40201 68.3847,30.83129 23.5641,17.26661 63.1029,50.30596 69.4403,58.0257 1.2754,1.55349 -0.2142,1.67179 -21.0498,1.67179 h -22.4224 z M 1786.596,480.67716 c -6.9196,-5.87448 -11.3854,-10.44419 -10.6381,-10.88568 0.4463,-0.26365 2.2349,-0.78447 3.9748,-1.15739 2.576,-0.55213 3.275,-0.32654 3.7642,1.2148 0.3304,1.04106 2.1366,4.44326 4.0136,7.56044 3.6793,6.11006 3.3547,7.06195 -1.1145,3.26783 z m 124.59,-1.97495 c -0.2292,-0.2061 -5.5761,-0.67799 -11.882,-1.04865 -6.3059,-0.37066 -11.5173,-0.76454 -11.5808,-0.87528 -1.5651,-2.72917 -14.4113,-18.83147 -16.3118,-20.44638 -1.4532,-1.23477 -2.4171,-2.24863 -2.1421,-2.25303 0.275,-0.004 5.1285,-0.90663 10.7855,-2.00497 14.3631,-2.78867 16.5967,-2.67334 19.2064,0.99169 1.1705,1.64376 4.0807,5.27612 6.4671,8.07191 3.7654,4.41131 10.541,15.55034 10.541,17.32941 0,0.65509 -4.3906,0.85832 -5.0833,0.2353 z M 1586.019,420.3234 c -2.7293,-3.06771 -3.9698,-15.55216 -3.5524,-35.75116 0.3596,-17.40013 0.6694,-20.10801 3.6885,-32.24531 2.7389,-11.01083 3.6072,-13.25 5.1377,-13.25 2.2737,0 2.6221,1.11368 4.0667,13 2.4702,20.32477 -1.7424,64.97672 -6.5029,68.92753 -0.939,0.77931 -1.701,0.59642 -2.8376,-0.68106 z"
       id="path1" /></g><path
     d="m 1060.9097,468.19457 28.899,-10.97768 -24.6196,-18.77991 -11.1607,55.10339 -12.7637,4.84851 13.8302,-66.35186 c 0.6636,-2.72071 2.6405,-4.96311 5.3822,-6.00459 2.6515,-1.0073 5.6016,-0.68773 7.8423,0.87816 l 54.5638,40.47431 -12.764,4.84857 -9.7955,-7.64495 -29.259,11.11441 z m 136.3585,-40.43183 -17.6191,-46.38238 -10.8315,4.11462 19.3433,50.92175 c 0.53,1.39303 1.5811,2.53651 3.0071,3.17778 1.4265,0.64107 3.0416,0.69605 4.5697,0.1156 l 49.3936,-18.7629 2.6094,-12.3571 z m -182.351,59.75423 c 10.517,-3.99504 15.8298,-15.73336 11.8346,-26.25027 -3.9955,-10.51674 -15.7782,-15.81251 -26.2953,-11.81744 l -47.38464,17.99975 21.39218,56.31508 10.82704,-4.11281 -17.61895,-46.38238 35.83837,-13.61375 c 5.034,-1.91227 10.6324,0.64118 12.5446,5.67495 1.9116,5.03391 -0.579,10.66014 -5.613,12.57236 l -30.55207,11.55415 43.03707,15.89801 15.7307,-5.97557 -28.6844,-9.9841 z M 907.81197,549.0828 c -15.54631,5.90548 -32.94267,-1.88652 -38.84982,-17.43719 -5.90715,-15.55073 1.91141,-32.97238 17.45775,-38.87788 l 32.73261,-12.43396 c 15.55072,-5.90715 32.955,1.93327 38.86226,17.48391 5.90713,15.55068 -1.91944,32.924 -17.47018,38.83116 z m 28.23144,-22.09006 c 10.07216,-3.8261 15.13931,-15.05962 11.31512,-25.12708 -3.82424,-10.06756 -15.08888,-15.14868 -25.16107,-11.32263 l -31.28111,11.8826 c -10.06746,3.82419 -15.12231,15.10459 -11.29805,25.17208 3.82433,10.06746 15.07655,15.10188 25.14399,11.27764 z M 1145.49,458.79731 c -15.5506,5.90722 -32.9602,-1.87979 -38.8671,-17.43057 -5.9073,-15.55071 1.9244,-32.9773 17.4754,-38.88455 l 38.8767,-14.76787 -2.5643,12.33998 -31.8203,12.0874 c -10.0678,3.8244 -15.1403,15.11136 -11.3158,25.17885 3.8247,10.06725 15.0942,15.09515 25.1616,11.27086 l 39.0563,-14.83601 -2.609,12.35694 z m 128.6777,-60.24596 c -8.3148,3.15847 -17.4883,0.26591 -22.5649,-6.60006 l 46.2928,-17.58503 2.6088,-12.35695 -52.6747,20.00932 c -0.745,-8.46007 4.177,-16.75847 12.4919,-19.91692 l 31.7759,-12.07054 2.6537,-12.37397 -38.9219,14.785 c -15.5504,5.90709 -23.3823,23.33384 -17.4752,38.88452 5.9071,15.55074 23.3167,23.33774 38.8675,17.43045 l 33.3934,-12.68494 2.6092,-12.35704 z"
     fill="#ea1b22"
     id="path1-2"
     style="stroke-width:0.913747" /></svg>
